
<svg width="60" height="60" viewBox="0 0 66 66" fill="none" xmlns="http://www.w3.org/2000/svg">
<g filter="url(#filter0_d_65_621)">
<path d="M52.9375 0H13.0625C8.05742 0 4 4.05742 4 9.0625V48.9375C4 53.9426 8.05742 58 13.0625 58H52.9375C57.9426 58 62 53.9426 62 48.9375V9.0625C62 4.05742 57.9426 0 52.9375 0Z" fill="#F00073"/>
<path d="M33 13.3538C38.062 13.3538 38.7523 13.3538 40.8231 13.3538C42.6639 13.3538 43.5842 13.814 44.2745 14.0441C45.1949 14.5043 45.8851 14.7344 46.5754 15.4247C47.2657 16.1149 47.7259 16.8052 47.956 17.7256C48.186 18.4158 48.4161 19.3362 48.6462 21.1769C48.6462 23.2478 48.6462 23.7079 48.6462 29C48.6462 34.2921 48.6462 34.7523 48.6462 36.8231C48.6462 38.6639 48.186 39.5842 47.956 40.2745C47.4958 41.1949 47.2657 41.8851 46.5754 42.5754C45.8851 43.2657 45.1949 43.7259 44.2745 43.956C43.5842 44.186 42.6639 44.4161 40.8231 44.6462C38.7523 44.6462 38.2921 44.6462 33 44.6462C27.7079 44.6462 27.2478 44.6462 25.1769 44.6462C23.3362 44.6462 22.4158 44.186 21.7256 43.956C20.8052 43.4958 20.1149 43.2657 19.4247 42.5754C18.7344 41.8851 18.2742 41.1949 18.0441 40.2745C17.814 39.5842 17.5839 38.6639 17.3538 36.8231C17.3538 34.7523 17.3538 34.2921 17.3538 29C17.3538 23.7079 17.3538 23.2478 17.3538 21.1769C17.3538 19.3362 17.814 18.4158 18.0441 17.7256C18.5043 16.8052 18.7344 16.1149 19.4247 15.4247C20.1149 14.7344 20.8052 14.2742 21.7256 14.0441C22.4158 13.814 23.3362 13.5839 25.1769 13.3538C27.2478 13.3538 27.938 13.3538 33 13.3538ZM33 9.90247C27.7079 9.90247 27.2478 9.90247 25.1769 9.90247C23.1061 9.90247 21.7256 10.3626 20.5751 10.8228C19.4247 11.283 18.2742 11.9733 17.1237 13.1237C15.9733 14.2742 15.5131 15.1946 14.8228 16.5751C14.3626 17.7256 14.1326 19.1061 13.9025 21.1769C13.9025 23.2478 13.9025 23.938 13.9025 29C13.9025 34.2921 13.9025 34.7523 13.9025 36.8231C13.9025 38.8939 14.3626 40.2745 14.8228 41.4249C15.283 42.5754 15.9733 43.7259 17.1237 44.8763C18.2742 46.0268 19.1946 46.487 20.5751 47.1772C21.7256 47.6374 23.1061 47.8675 25.1769 48.0976C27.2478 48.0976 27.938 48.0976 33 48.0976C38.062 48.0976 38.7523 48.0976 40.8231 48.0976C42.8939 48.0976 44.2745 47.6374 45.4249 47.1772C46.5754 46.717 47.7259 46.0268 48.8763 44.8763C50.0268 43.7259 50.487 42.8055 51.1772 41.4249C51.6374 40.2745 51.8675 38.8939 52.0976 36.8231C52.0976 34.7523 52.0976 34.062 52.0976 29C52.0976 23.938 52.0976 23.2478 52.0976 21.1769C52.0976 19.1061 51.6374 17.7256 51.1772 16.5751C50.717 15.4247 50.0268 14.2742 48.8763 13.1237C47.7259 11.9733 46.8055 11.5131 45.4249 10.8228C44.2745 10.3626 42.8939 10.1326 40.8231 9.90247C38.7523 9.90247 38.2921 9.90247 33 9.90247Z" fill="white"/>
<path d="M33 19.1061C27.4778 19.1061 23.1061 23.4778 23.1061 29C23.1061 34.5222 27.4778 38.8939 33 38.8939C38.5222 38.8939 42.8939 34.5222 42.8939 29C42.8939 23.4778 38.5222 19.1061 33 19.1061ZM33 35.4426C29.5487 35.4426 26.5575 32.6815 26.5575 29C26.5575 25.5487 29.3186 22.5575 33 22.5575C36.4514 22.5575 39.4426 25.3186 39.4426 29C39.4426 32.4514 36.4514 35.4426 33 35.4426Z" fill="white"/>
<path d="M43.124 21.1769C44.3948 21.1769 45.4249 20.1468 45.4249 18.876C45.4249 17.6053 44.3948 16.5751 43.124 16.5751C41.8533 16.5751 40.8231 17.6053 40.8231 18.876C40.8231 20.1468 41.8533 21.1769 43.124 21.1769Z" fill="white"/>
</g>
<defs>
<filter id="filter0_d_65_621" x="0" y="0" width="66" height="66" filterUnits="userSpaceOnUse" color-interpolation-filters="sRGB">
<feFlood flood-opacity="0" result="BackgroundImageFix"/>
<feColorMatrix in="SourceAlpha" type="matrix" values="0 0 0 0 0 0 0 0 0 0 0 0 0 0 0 0 0 0 127 0" result="hardAlpha"/>
<feOffset dy="4"/>
<feGaussianBlur stdDeviation="2"/>
<feComposite in2="hardAlpha" operator="out"/>
<feColorMatrix type="matrix" values="0 0 0 0 0 0 0 0 0 0 0 0 0 0 0 0 0 0 0.25 0"/>
<feBlend mode="normal" in2="BackgroundImageFix" result="effect1_dropShadow_65_621"/>
<feBlend mode="normal" in="SourceGraphic" in2="effect1_dropShadow_65_621" result="shape"/>
</filter>
</defs>
</svg>
