
<svg width="60" height="60" viewBox="0 0 60 60" fill="none" xmlns="http://www.w3.org/2000/svg">
<path d="M0 9.375C0 4.19733 4.19733 0 9.375 0H50.625C55.8027 0 60 4.19733 60 9.375V50.625C60 55.8027 55.8027 60 50.625 60H9.375C4.19733 60 0 55.8027 0 50.625V9.375Z" fill="black"/>
<path d="M26.9296 26.0028V24.538C26.4278 24.4709 25.9176 24.429 25.3907 24.429C19.1094 24.4208 13.9991 29.5353 13.9991 35.8302C13.9991 39.6892 15.9228 43.1045 18.8669 45.1721C16.9683 43.138 15.8057 40.4007 15.8057 37.4039C15.8057 31.2011 20.7738 26.1451 26.9296 26.0028Z" fill="#25F4EE"/>
<path d="M27.2057 42.6107C30.0076 42.6107 32.2993 40.3757 32.3997 37.5966L32.4081 12.7601H36.9412C36.8492 12.2495 36.799 11.7221 36.799 11.1864H30.6098L30.6014 36.0228C30.5011 38.802 28.2093 41.0369 25.4075 41.0369C24.5377 41.0369 23.718 40.8193 22.9904 40.4342C23.9271 41.7484 25.4661 42.6107 27.2057 42.6107Z" fill="#25F4EE"/>
<path d="M45.4139 21.1895V19.8084C43.6827 19.8084 42.0767 19.2978 40.7218 18.4104C41.9262 19.7917 43.5571 20.7962 45.4139 21.1895Z" fill="#25F4EE"/>
<path d="M40.7217 18.4104C39.4002 16.8953 38.6057 14.9198 38.6057 12.7601H36.9497C37.3762 15.1207 38.7814 17.1465 40.7217 18.4104Z" fill="#FE2C55"/>
<path d="M25.399 30.6151C22.5302 30.6151 20.1967 32.9506 20.1967 35.8218C20.1967 37.8225 21.3341 39.5636 22.9902 40.4342C22.3713 39.5803 22.0032 38.534 22.0032 37.3955C22.0032 34.5243 24.3367 32.1888 27.2056 32.1888C27.7409 32.1888 28.2594 32.2809 28.7445 32.4316V26.1033C28.2426 26.0362 27.7325 25.9943 27.2056 25.9943C27.1135 25.9943 27.0299 26.0027 26.9379 26.0027V30.8578C26.4444 30.7071 25.9342 30.6151 25.399 30.6151Z" fill="#FE2C55"/>
<path d="M45.4136 21.1896V26.0028C42.2018 26.0028 39.2243 24.9733 36.7987 23.2321V35.8303C36.7987 42.1168 31.6885 47.2398 25.3988 47.2398C22.9733 47.2398 20.7151 46.4697 18.8667 45.1722C20.9493 47.4072 23.9184 48.8135 27.2055 48.8135C33.4867 48.8135 38.6054 43.6989 38.6054 37.404V24.8058C41.0308 26.547 44.0083 27.5765 47.2201 27.5765V21.3822C46.5928 21.3822 45.9906 21.3151 45.4136 21.1896Z" fill="#FE2C55"/>
<path d="M36.7988 35.8302V23.232C39.2244 24.9732 42.2019 26.0028 45.4137 26.0028V21.1896C43.5569 20.7962 41.9259 19.7917 40.7216 18.4104C38.7811 17.1465 37.3844 15.1207 36.941 12.7601H32.4079L32.3995 37.5964C32.2992 40.3756 30.0074 42.6107 27.2056 42.6107C25.4659 42.6107 23.9353 41.7485 22.9818 40.4426C21.3258 39.5636 20.1883 37.831 20.1883 35.8302C20.1883 32.9591 22.5218 30.6235 25.3906 30.6235C25.9259 30.6235 26.4445 30.7156 26.9296 30.8663V26.0112C20.7738 26.1451 15.8057 31.2011 15.8057 37.404C15.8057 40.4007 16.9682 43.1297 18.8668 45.1722C20.7152 46.4696 22.9735 47.2398 25.399 47.2398C31.6802 47.2398 36.7988 42.1168 36.7988 35.8302Z" fill="white"/>
</svg>
