<svg width="120" height="120" viewBox="0 0 202 68" fill="none" xmlns="http://www.w3.org/2000/svg">
                         <g filter="url(#filter0_d_59_596)">
                         <rect x="4" width="194" height="60" rx="14" fill="#39B00F"/>
                         </g>
                         <g clip-path="url(#clip0_59_596)">
                         <path d="M45.1043 26.2844H53.3887C54.0392 26.2844 54.5684 25.7551 54.5684 25.1047V18H43.9246V25.1047C43.9246 25.7551 44.4538 26.2844 45.1043 26.2844ZM51.5559 21.7156C51.5559 21.3273 51.8707 21.0125 52.259 21.0125C52.6473 21.0125 52.9621 21.3273 52.9621 21.7156V23.975C52.9621 24.3633 52.6473 24.6781 52.259 24.6781C51.8707 24.6781 51.5559 24.3633 51.5559 23.975V21.7156Z" fill="white"/>
                         <path d="M54.8949 32.2094H45.1043C44.4538 32.2094 43.9246 32.7385 43.9246 33.389V41.9999H56.0746V33.389C56.0746 32.7385 55.5454 32.2094 54.8949 32.2094Z" fill="white"/>
                         <path d="M61.794 22.7247L57.2753 18.206C57.1434 18.0741 56.9646 18 56.7781 18H55.975V25.1047C55.975 26.5305 54.815 27.6906 53.3891 27.6906H45.1047C43.6788 27.6906 42.5187 26.5305 42.5187 25.1047V18H40.5859C39.1601 18 38 19.1601 38 20.586V39.414C38 40.8399 39.1601 42 40.5859 42H42.5187V33.3891C42.5187 31.9632 43.6788 30.8032 45.1047 30.8032H54.8953C56.3211 30.8032 57.4812 31.9632 57.4812 33.3891V42H59.414C60.8399 42 62 40.8399 62 39.414V23.2219C62 23.0354 61.9259 22.8565 61.794 22.7247Z" fill="white"/>
                         </g>
                         <path d="M94.58 38.126C93.704 38.126 92.912 37.976 92.204 37.676C91.508 37.376 90.956 36.944 90.548 36.38C90.14 35.816 89.93 35.15 89.918 34.382H92.618C92.654 34.898 92.834 35.306 93.158 35.606C93.494 35.906 93.95 36.056 94.526 36.056C95.114 36.056 95.576 35.918 95.912 35.642C96.248 35.354 96.416 34.982 96.416 34.526C96.416 34.154 96.302 33.848 96.074 33.608C95.846 33.368 95.558 33.182 95.21 33.05C94.874 32.906 94.406 32.75 93.806 32.582C92.99 32.342 92.324 32.108 91.808 31.88C91.304 31.64 90.866 31.286 90.494 30.818C90.134 30.338 89.954 29.702 89.954 28.91C89.954 28.166 90.14 27.518 90.512 26.966C90.884 26.414 91.406 25.994 92.078 25.706C92.75 25.406 93.518 25.256 94.382 25.256C95.678 25.256 96.728 25.574 97.532 26.21C98.348 26.834 98.798 27.71 98.882 28.838H96.11C96.086 28.406 95.9 28.052 95.552 27.776C95.216 27.488 94.766 27.344 94.202 27.344C93.71 27.344 93.314 27.47 93.014 27.722C92.726 27.974 92.582 28.34 92.582 28.82C92.582 29.156 92.69 29.438 92.906 29.666C93.134 29.882 93.41 30.062 93.734 30.206C94.07 30.338 94.538 30.494 95.138 30.674C95.954 30.914 96.62 31.154 97.136 31.394C97.652 31.634 98.096 31.994 98.468 32.474C98.84 32.954 99.026 33.584 99.026 34.364C99.026 35.036 98.852 35.66 98.504 36.236C98.156 36.812 97.646 37.274 96.974 37.622C96.302 37.958 95.504 38.126 94.58 38.126ZM108.915 35.606H103.911L103.083 38H100.437L104.955 25.418H107.889L112.407 38H109.743L108.915 35.606ZM108.231 33.59L106.413 28.334L104.595 33.59H108.231ZM125.382 25.436L120.774 38H117.714L113.106 25.436H115.806L119.262 35.426L122.7 25.436H125.382ZM129.412 27.47V30.62H133.642V32.618H129.412V35.948H134.182V38H126.892V25.418H134.182V27.47H129.412Z" fill="white"/>
                         <defs>
                         <filter id="filter0_d_59_596" x="0" y="0" width="202" height="68" filterUnits="userSpaceOnUse" color-interpolation-filters="sRGB">
                         <feFlood flood-opacity="0" result="BackgroundImageFix"/>
                         <feColorMatrix in="SourceAlpha" type="matrix" values="0 0 0 0 0 0 0 0 0 0 0 0 0 0 0 0 0 0 127 0" result="hardAlpha"/>
                         <feOffset dy="4"/>
                         <feGaussianBlur stdDeviation="2"/>
                         <feColorMatrix type="matrix" values="0 0 0 0 0 0 0 0 0 0 0 0 0 0 0 0 0 0 0.04 0"/>
                         <feBlend mode="normal" in2="BackgroundImageFix" result="effect1_dropShadow_59_596"/>
                         <feBlend mode="normal" in="SourceGraphic" in2="effect1_dropShadow_59_596" result="shape"/>
                         </filter>
                         <clipPath id="clip0_59_596">
                         <rect width="24" height="24" fill="white" transform="translate(38 18)"/>
                         </clipPath>
                         </defs>
                     </svg>