        <svg width="120" height="120" viewBox="0 0 202 68" fill="none" xmlns="http://www.w3.org/2000/svg">
                            <g filter="url(#filter0_d_114_594)">
                            <rect x="4" width="194" height="60" rx="14" fill="#FF0000"/>
                            </g>
                            <path d="M89.63 31.7C89.63 30.464 89.906 29.36 90.458 28.388C91.022 27.404 91.784 26.642 92.744 26.102C93.716 25.55 94.802 25.274 96.002 25.274C97.406 25.274 98.636 25.634 99.692 26.354C100.748 27.074 101.486 28.07 101.906 29.342H99.008C98.72 28.742 98.312 28.292 97.784 27.992C97.268 27.692 96.668 27.542 95.984 27.542C95.252 27.542 94.598 27.716 94.022 28.064C93.458 28.4 93.014 28.88 92.69 29.504C92.378 30.128 92.222 30.86 92.222 31.7C92.222 32.528 92.378 33.26 92.69 33.896C93.014 34.52 93.458 35.006 94.022 35.354C94.598 35.69 95.252 35.858 95.984 35.858C96.668 35.858 97.268 35.708 97.784 35.408C98.312 35.096 98.72 34.64 99.008 34.04H101.906C101.486 35.324 100.748 36.326 99.692 37.046C98.648 37.754 97.418 38.108 96.002 38.108C94.802 38.108 93.716 37.838 92.744 37.298C91.784 36.746 91.022 35.984 90.458 35.012C89.906 34.04 89.63 32.936 89.63 31.7ZM103.41 32.978C103.41 31.97 103.608 31.076 104.004 30.296C104.412 29.516 104.958 28.916 105.642 28.496C106.338 28.076 107.112 27.866 107.964 27.866C108.708 27.866 109.356 28.016 109.908 28.316C110.472 28.616 110.922 28.994 111.258 29.45V28.028H113.796V38H111.258V36.542C110.934 37.01 110.484 37.4 109.908 37.712C109.344 38.012 108.69 38.162 107.946 38.162C107.106 38.162 106.338 37.946 105.642 37.514C104.958 37.082 104.412 36.476 104.004 35.696C103.608 34.904 103.41 33.998 103.41 32.978ZM111.258 33.014C111.258 32.402 111.138 31.88 110.898 31.448C110.658 31.004 110.334 30.668 109.926 30.44C109.518 30.2 109.08 30.08 108.612 30.08C108.144 30.08 107.712 30.194 107.316 30.422C106.92 30.65 106.596 30.986 106.344 31.43C106.104 31.862 105.984 32.378 105.984 32.978C105.984 33.578 106.104 34.106 106.344 34.562C106.596 35.006 106.92 35.348 107.316 35.588C107.724 35.828 108.156 35.948 108.612 35.948C109.08 35.948 109.518 35.834 109.926 35.606C110.334 35.366 110.658 35.03 110.898 34.598C111.138 34.154 111.258 33.626 111.258 33.014ZM121.784 27.884C122.972 27.884 123.932 28.262 124.664 29.018C125.396 29.762 125.762 30.806 125.762 32.15V38H123.242V32.492C123.242 31.7 123.044 31.094 122.648 30.674C122.252 30.242 121.712 30.026 121.028 30.026C120.332 30.026 119.78 30.242 119.372 30.674C118.976 31.094 118.778 31.7 118.778 32.492V38H116.258V28.028H118.778V29.27C119.114 28.838 119.54 28.502 120.056 28.262C120.584 28.01 121.16 27.884 121.784 27.884ZM127.51 33.014C127.51 31.982 127.72 31.082 128.14 30.314C128.56 29.534 129.142 28.934 129.886 28.514C130.63 28.082 131.482 27.866 132.442 27.866C133.678 27.866 134.698 28.178 135.502 28.802C136.318 29.414 136.864 30.278 137.14 31.394H134.422C134.278 30.962 134.032 30.626 133.684 30.386C133.348 30.134 132.928 30.008 132.424 30.008C131.704 30.008 131.134 30.272 130.714 30.8C130.294 31.316 130.084 32.054 130.084 33.014C130.084 33.962 130.294 34.7 130.714 35.228C131.134 35.744 131.704 36.002 132.424 36.002C133.444 36.002 134.11 35.546 134.422 34.634H137.14C136.864 35.714 136.318 36.572 135.502 37.208C134.686 37.844 133.666 38.162 132.442 38.162C131.482 38.162 130.63 37.952 129.886 37.532C129.142 37.1 128.56 36.5 128.14 35.732C127.72 34.952 127.51 34.046 127.51 33.014ZM148.256 32.798C148.256 33.158 148.232 33.482 148.184 33.77H140.894C140.954 34.49 141.206 35.054 141.65 35.462C142.094 35.87 142.64 36.074 143.288 36.074C144.224 36.074 144.89 35.672 145.286 34.868H148.004C147.716 35.828 147.164 36.62 146.348 37.244C145.532 37.856 144.53 38.162 143.342 38.162C142.382 38.162 141.518 37.952 140.75 37.532C139.994 37.1 139.4 36.494 138.968 35.714C138.548 34.934 138.338 34.034 138.338 33.014C138.338 31.982 138.548 31.076 138.968 30.296C139.388 29.516 139.976 28.916 140.732 28.496C141.488 28.076 142.358 27.866 143.342 27.866C144.29 27.866 145.136 28.07 145.88 28.478C146.636 28.886 147.218 29.468 147.626 30.224C148.046 30.968 148.256 31.826 148.256 32.798ZM145.646 32.078C145.634 31.43 145.4 30.914 144.944 30.53C144.488 30.134 143.93 29.936 143.27 29.936C142.646 29.936 142.118 30.128 141.686 30.512C141.266 30.884 141.008 31.406 140.912 32.078H145.646ZM152.616 24.68V38H150.096V24.68H152.616Z" fill="white"/>
                            <path fill-rule="evenodd" clip-rule="evenodd" d="M41.3572 16C40.8836 16 40.4294 16.1881 40.0946 16.523C39.7597 16.8579 39.5715 17.3121 39.5715 17.7857V30.3571C39.5715 30.6333 39.3477 30.8571 39.0715 30.8571C38.7954 30.8571 38.5715 30.6333 38.5715 30.3571V17.7857C38.5715 17.0469 38.865 16.3383 39.3874 15.8159C39.9099 15.2935 40.6184 15 41.3572 15H52.7858C52.9184 15 53.0456 15.0527 53.1394 15.1464L64.5679 26.575C64.6617 26.6688 64.7144 26.796 64.7144 26.9286V42.9286C64.7144 43.6674 64.4209 44.3759 63.8985 44.8984C63.376 45.4208 62.6675 45.7143 61.9287 45.7143H51.643C51.3668 45.7143 51.143 45.4904 51.143 45.2143C51.143 44.9381 51.3668 44.7143 51.643 44.7143H61.9287C62.4023 44.7143 62.8565 44.5261 63.1914 44.1913C63.5263 43.8564 63.7144 43.4022 63.7144 42.9286V27.1357L52.5787 16H41.3572Z" fill="#000001" stroke="white" stroke-width="2" stroke-linecap="round" stroke-linejoin="round"/>
                            <path fill-rule="evenodd" clip-rule="evenodd" d="M52.7856 15C53.0618 15 53.2856 15.2239 53.2856 15.5V26.4286H64.2142C64.4904 26.4286 64.7142 26.6524 64.7142 26.9286C64.7142 27.2047 64.4904 27.4286 64.2142 27.4286H52.7856C52.5095 27.4286 52.2856 27.2047 52.2856 26.9286V15.5C52.2856 15.2239 52.5095 15 52.7856 15Z" fill="#000001" stroke="white" stroke-width="2" stroke-linecap="round" stroke-linejoin="round"/>
                            <path fill-rule="evenodd" clip-rule="evenodd" d="M44.545 35.1693C44.7402 35.3645 44.7402 35.6811 44.545 35.8764L34.8536 45.5678C34.6583 45.7631 34.3417 45.7631 34.1464 45.5678C33.9512 45.3725 33.9512 45.056 34.1464 44.8607L43.8379 35.1693C44.0331 34.974 44.3497 34.974 44.545 35.1693Z" fill="#000001" stroke="white" stroke-width="2" stroke-linecap="round" stroke-linejoin="round"/>
                            <path fill-rule="evenodd" clip-rule="evenodd" d="M34.1464 35.1693C34.3417 34.974 34.6583 34.974 34.8536 35.1693L44.545 44.8607C44.7402 45.056 44.7402 45.3725 44.545 45.5678C44.3497 45.7631 44.0331 45.7631 43.8379 45.5678L34.1464 35.8764C33.9512 35.6811 33.9512 35.3645 34.1464 35.1693Z" fill="#000001" stroke="white" stroke-width="2" stroke-linecap="round" stroke-linejoin="round"/>
                            <defs>
                            <filter id="filter0_d_114_594" x="0" y="0" width="202" height="68" filterUnits="userSpaceOnUse" color-interpolation-filters="sRGB">
                            <feFlood flood-opacity="0" result="BackgroundImageFix"/>
                            <feColorMatrix in="SourceAlpha" type="matrix" values="0 0 0 0 0 0 0 0 0 0 0 0 0 0 0 0 0 0 127 0" result="hardAlpha"/>
                            <feOffset dy="4"/>
                            <feGaussianBlur stdDeviation="2"/>
                            <feColorMatrix type="matrix" values="0 0 0 0 0 0 0 0 0 0 0 0 0 0 0 0 0 0 0.04 0"/>
                            <feBlend mode="normal" in2="BackgroundImageFix" result="effect1_dropShadow_114_594"/>
                            <feBlend mode="normal" in="SourceGraphic" in2="effect1_dropShadow_114_594" result="shape"/>
                            </filter>
                            </defs>
                        </svg>